<svg
        xmlns="http://www.w3.org/2000/svg"
        viewBox="0 0 64 64"
        width="64px"
        height="64px">
    <g>
        <!-- Pixie Body -->
        <circle cx="32" cy="32" r="4" fill="#FFD700" />
        <!-- Pixie Wings -->
        <path d="M32,28 C36,24 44,24 48,28 C44,32 36,32 32,28" fill="#ADD8E6" />
        <path d="M32,28 C28,24 20,24 16,28 C20,32 28,32 32,28" fill="#ADD8E6" />
        <!-- Pixie Legs -->
        <line x1="30" y1="36" x2="30" y2="44" stroke="#FFD700" stroke-width="2" />
        <line x1="34" y1="36" x2="34" y2="44" stroke="#FFD700" stroke-width="2" />
        <!-- Pixie Arms -->
        <line x1="28" y1="32" x2="24" y2="36" stroke="#FFD700" stroke-width="2" />
        <line x1="36" y1="32" x2="40" y2="36" stroke="#FFD700" stroke-width="2" />
        <!-- Pixie Head -->
        <circle cx="32" cy="24" r="4" fill="#FFD700" />
        <!-- Sparkles -->
        <circle cx="40" cy="20" r="1" fill="#FFFFFF" />
        <circle cx="44" cy="28" r="1.5" fill="#FFFFFF" />
        <circle cx="24" cy="20" r="1" fill="#FFFFFF" />
        <circle cx="20" cy="28" r="1.5" fill="#FFFFFF" />
    </g>
</svg>